<mxfile host="drawio-plugin" modified="2024-05-13T14:17:14.533Z" agent="5.0 (Windows NT 10.0; Win64; x64) AppleWebKit/537.36 (KHTML, like Gecko) Chrome/122.0.0.0 Safari/537.36" etag="WFchUygUjjEFK_84hVQw" version="20.5.3" type="embed"><diagram name="Página-1" id="u6p3DXnC-Oiey1nEZpDQ"><mxGraphModel dx="500" dy="265" grid="1" gridSize="10" guides="1" tooltips="1" connect="1" arrows="1" fold="1" page="1" pageScale="1" pageWidth="827" pageHeight="1169" math="0" shadow="0"><root><mxCell id="0"/><mxCell id="1" parent="0"/><mxCell id="oby6OhFrnuwyH6eVMqic-13" value="Media" style="swimlane;fontStyle=1;align=center;verticalAlign=top;childLayout=stackLayout;horizontal=1;startSize=26;horizontalStack=0;resizeParent=1;resizeParentMax=0;resizeLast=0;collapsible=1;marginBottom=0;whiteSpace=wrap;html=1;" parent="1" vertex="1"><mxGeometry x="580" y="226" width="170" height="120" as="geometry"/></mxCell><mxCell id="oby6OhFrnuwyH6eVMqic-14" value="- content: byte[0..*]&lt;div&gt;- thumbnail: bytes&lt;span style=&quot;background-color: initial;&quot;&gt;[0..*]&lt;/span&gt;&lt;/div&gt;" style="text;strokeColor=none;fillColor=none;align=left;verticalAlign=top;spacingLeft=4;spacingRight=4;overflow=hidden;rotatable=0;points=[[0,0.5],[1,0.5]];portConstraint=eastwest;whiteSpace=wrap;html=1;" parent="oby6OhFrnuwyH6eVMqic-13" vertex="1"><mxGeometry y="26" width="170" height="44" as="geometry"/></mxCell><mxCell id="oby6OhFrnuwyH6eVMqic-15" value="" style="line;strokeWidth=1;fillColor=none;align=left;verticalAlign=middle;spacingTop=-1;spacingLeft=3;spacingRight=3;rotatable=0;labelPosition=right;points=[];portConstraint=eastwest;strokeColor=inherit;" parent="oby6OhFrnuwyH6eVMqic-13" vertex="1"><mxGeometry y="70" width="170" height="8" as="geometry"/></mxCell><mxCell id="oby6OhFrnuwyH6eVMqic-16" value="+ getContent(): byte[0..*]&lt;div&gt;+ getThumbnail(): byte&lt;span style=&quot;background-color: initial;&quot;&gt;[0..*]&lt;/span&gt;&lt;/div&gt;" style="text;strokeColor=none;fillColor=none;align=left;verticalAlign=top;spacingLeft=4;spacingRight=4;overflow=hidden;rotatable=0;points=[[0,0.5],[1,0.5]];portConstraint=eastwest;whiteSpace=wrap;html=1;" parent="oby6OhFrnuwyH6eVMqic-13" vertex="1"><mxGeometry y="78" width="170" height="42" as="geometry"/></mxCell><mxCell id="oby6OhFrnuwyH6eVMqic-17" value="Player" style="swimlane;fontStyle=1;align=center;verticalAlign=top;childLayout=stackLayout;horizontal=1;startSize=26;horizontalStack=0;resizeParent=1;resizeParentMax=0;resizeLast=0;collapsible=1;marginBottom=0;whiteSpace=wrap;html=1;" parent="1" vertex="1"><mxGeometry x="270" y="211" width="160" height="160" as="geometry"/></mxCell><mxCell id="oby6OhFrnuwyH6eVMqic-18" value="- playing: boolean&lt;div&gt;- showCover: boolean&lt;/div&gt;&lt;div&gt;- landscape: boolean&lt;/div&gt;" style="text;strokeColor=none;fillColor=none;align=left;verticalAlign=top;spacingLeft=4;spacingRight=4;overflow=hidden;rotatable=0;points=[[0,0.5],[1,0.5]];portConstraint=eastwest;whiteSpace=wrap;html=1;" parent="oby6OhFrnuwyH6eVMqic-17" vertex="1"><mxGeometry y="26" width="160" height="54" as="geometry"/></mxCell><mxCell id="oby6OhFrnuwyH6eVMqic-19" value="" style="line;strokeWidth=1;fillColor=none;align=left;verticalAlign=middle;spacingTop=-1;spacingLeft=3;spacingRight=3;rotatable=0;labelPosition=right;points=[];portConstraint=eastwest;strokeColor=inherit;" parent="oby6OhFrnuwyH6eVMqic-17" vertex="1"><mxGeometry y="80" width="160" height="8" as="geometry"/></mxCell><mxCell id="oby6OhFrnuwyH6eVMqic-20" value="+ play(media: Media): void&lt;div&gt;+ stop(): void&lt;/div&gt;&lt;div&gt;+ showCover(): void&lt;/div&gt;&lt;div&gt;+ toggleCover():&lt;br&gt;&lt;/div&gt;" style="text;strokeColor=none;fillColor=none;align=left;verticalAlign=top;spacingLeft=4;spacingRight=4;overflow=hidden;rotatable=0;points=[[0,0.5],[1,0.5]];portConstraint=eastwest;whiteSpace=wrap;html=1;" parent="oby6OhFrnuwyH6eVMqic-17" vertex="1"><mxGeometry y="88" width="160" height="72" as="geometry"/></mxCell><mxCell id="oby6OhFrnuwyH6eVMqic-22" value="Relation" style="endArrow=open;html=1;endSize=12;startArrow=diamondThin;startSize=14;startFill=0;edgeStyle=orthogonalEdgeStyle;rounded=0;exitX=1;exitY=0.5;exitDx=0;exitDy=0;entryX=0;entryY=0.5;entryDx=0;entryDy=0;" parent="1" source="oby6OhFrnuwyH6eVMqic-18" target="oby6OhFrnuwyH6eVMqic-14" edge="1"><mxGeometry relative="1" as="geometry"><mxPoint x="430" y="219" as="sourcePoint"/><mxPoint x="580" y="356" as="targetPoint"/></mxGeometry></mxCell><mxCell id="oby6OhFrnuwyH6eVMqic-24" value="1..*" style="edgeLabel;resizable=0;html=1;align=right;verticalAlign=top;" parent="oby6OhFrnuwyH6eVMqic-22" connectable="0" vertex="1"><mxGeometry x="1" relative="1" as="geometry"><mxPoint x="-10" as="offset"/></mxGeometry></mxCell><mxCell id="oby6OhFrnuwyH6eVMqic-27" value="Phone" style="swimlane;fontStyle=1;align=center;verticalAlign=top;childLayout=stackLayout;horizontal=1;startSize=26;horizontalStack=0;resizeParent=1;resizeParentMax=0;resizeLast=0;collapsible=1;marginBottom=0;whiteSpace=wrap;html=1;" parent="1" vertex="1"><mxGeometry x="250" y="420" width="210" height="240" as="geometry"/></mxCell><mxCell id="oby6OhFrnuwyH6eVMqic-28" value="&lt;span style=&quot;background-color: initial;&quot;&gt;- calling: boolean&lt;br&gt;&lt;/span&gt;&lt;div&gt;- favorites: Contact[0..*]&lt;/div&gt;&lt;div&gt;- voicemail: Media[0..*]&lt;/div&gt;" style="text;strokeColor=none;fillColor=none;align=left;verticalAlign=top;spacingLeft=4;spacingRight=4;overflow=hidden;rotatable=0;points=[[0,0.5],[1,0.5]];portConstraint=eastwest;whiteSpace=wrap;html=1;" parent="oby6OhFrnuwyH6eVMqic-27" vertex="1"><mxGeometry y="26" width="210" height="54" as="geometry"/></mxCell><mxCell id="oby6OhFrnuwyH6eVMqic-29" value="" style="line;strokeWidth=1;fillColor=none;align=left;verticalAlign=middle;spacingTop=-1;spacingLeft=3;spacingRight=3;rotatable=0;labelPosition=right;points=[];portConstraint=eastwest;strokeColor=inherit;" parent="oby6OhFrnuwyH6eVMqic-27" vertex="1"><mxGeometry y="80" width="210" height="8" as="geometry"/></mxCell><mxCell id="oby6OhFrnuwyH6eVMqic-30" value="+ openCall(Contact): void&lt;br&gt;&lt;div&gt;+ createConference(): void&lt;/div&gt;&lt;div&gt;+ closeCall(): void&lt;/div&gt;&lt;div&gt;+ addFavorite(contact: Contact): void&lt;/div&gt;&lt;div&gt;+ getFavorites(): Contact[0..*]&lt;/div&gt;&lt;div&gt;+ showPhoneKeyboard(): void&lt;/div&gt;&lt;div&gt;+ calltForNumber(number: int): void&lt;/div&gt;&lt;div&gt;+ getVoicemail(): Media[0..*]&lt;/div&gt;&lt;div&gt;+ playVoiceMail(message: Media) : void&lt;/div&gt;" style="text;strokeColor=none;fillColor=none;align=left;verticalAlign=top;spacingLeft=4;spacingRight=4;overflow=hidden;rotatable=0;points=[[0,0.5],[1,0.5]];portConstraint=eastwest;whiteSpace=wrap;html=1;" parent="oby6OhFrnuwyH6eVMqic-27" vertex="1"><mxGeometry y="88" width="210" height="152" as="geometry"/></mxCell><mxCell id="oby6OhFrnuwyH6eVMqic-35" value="Use" style="endArrow=open;endSize=12;dashed=1;html=1;rounded=0;exitX=1;exitY=0.5;exitDx=0;exitDy=0;entryX=0.004;entryY=0.131;entryDx=0;entryDy=0;entryPerimeter=0;" parent="1" source="ov68dBWVrfhX7pjr2wxw-23" target="oby6OhFrnuwyH6eVMqic-27" edge="1"><mxGeometry width="160" relative="1" as="geometry"><mxPoint x="213.23000000000013" y="388.1" as="sourcePoint"/><mxPoint x="266" y="432" as="targetPoint"/></mxGeometry></mxCell><mxCell id="oby6OhFrnuwyH6eVMqic-36" value="Use" style="endArrow=open;endSize=12;dashed=1;html=1;rounded=0;entryX=-0.004;entryY=0.099;entryDx=0;entryDy=0;entryPerimeter=0;exitX=1;exitY=0.5;exitDx=0;exitDy=0;" parent="1" source="ov68dBWVrfhX7pjr2wxw-21" target="oby6OhFrnuwyH6eVMqic-17" edge="1"><mxGeometry width="160" relative="1" as="geometry"><mxPoint x="211.5200000000001" y="345.65" as="sourcePoint"/><mxPoint x="310" y="390" as="targetPoint"/></mxGeometry></mxCell><mxCell id="oby6OhFrnuwyH6eVMqic-41" value="Co&lt;span style=&quot;background-color: initial;&quot;&gt;ntact&lt;/span&gt;" style="swimlane;fontStyle=1;align=center;verticalAlign=top;childLayout=stackLayout;horizontal=1;startSize=26;horizontalStack=0;resizeParent=1;resizeParentMax=0;resizeLast=0;collapsible=1;marginBottom=0;whiteSpace=wrap;html=1;" parent="1" vertex="1"><mxGeometry x="578" y="457" width="160" height="150" as="geometry"/></mxCell><mxCell id="oby6OhFrnuwyH6eVMqic-42" value="- name: string&lt;div&gt;- phone: int&lt;/div&gt;&lt;div&gt;- email: string&lt;br&gt;&lt;div&gt;&lt;br&gt;&lt;/div&gt;&lt;/div&gt;" style="text;strokeColor=none;fillColor=none;align=left;verticalAlign=top;spacingLeft=4;spacingRight=4;overflow=hidden;rotatable=0;points=[[0,0.5],[1,0.5]];portConstraint=eastwest;whiteSpace=wrap;html=1;" parent="oby6OhFrnuwyH6eVMqic-41" vertex="1"><mxGeometry y="26" width="160" height="54" as="geometry"/></mxCell><mxCell id="oby6OhFrnuwyH6eVMqic-43" value="" style="line;strokeWidth=1;fillColor=none;align=left;verticalAlign=middle;spacingTop=-1;spacingLeft=3;spacingRight=3;rotatable=0;labelPosition=right;points=[];portConstraint=eastwest;strokeColor=inherit;" parent="oby6OhFrnuwyH6eVMqic-41" vertex="1"><mxGeometry y="80" width="160" height="8" as="geometry"/></mxCell><mxCell id="oby6OhFrnuwyH6eVMqic-44" value="+ getName(): string&lt;div&gt;+ getPhone(): int&lt;/div&gt;&lt;div&gt;+ getEmail(): string&lt;/div&gt;" style="text;strokeColor=none;fillColor=none;align=left;verticalAlign=top;spacingLeft=4;spacingRight=4;overflow=hidden;rotatable=0;points=[[0,0.5],[1,0.5]];portConstraint=eastwest;whiteSpace=wrap;html=1;" parent="oby6OhFrnuwyH6eVMqic-41" vertex="1"><mxGeometry y="88" width="160" height="62" as="geometry"/></mxCell><mxCell id="oby6OhFrnuwyH6eVMqic-46" value="Relation" style="endArrow=open;html=1;endSize=12;startArrow=diamondThin;startSize=14;startFill=0;edgeStyle=orthogonalEdgeStyle;rounded=0;exitX=1;exitY=0.5;exitDx=0;exitDy=0;entryX=0;entryY=0.5;entryDx=0;entryDy=0;" parent="1" source="oby6OhFrnuwyH6eVMqic-28" target="oby6OhFrnuwyH6eVMqic-42" edge="1"><mxGeometry relative="1" as="geometry"><mxPoint x="440" y="229" as="sourcePoint"/><mxPoint x="590" y="301" as="targetPoint"/><Array as="points"><mxPoint x="550" y="483"/><mxPoint x="550" y="510"/></Array></mxGeometry></mxCell><mxCell id="oby6OhFrnuwyH6eVMqic-47" value="1..*" style="edgeLabel;resizable=0;html=1;align=right;verticalAlign=top;" parent="oby6OhFrnuwyH6eVMqic-46" connectable="0" vertex="1"><mxGeometry x="1" relative="1" as="geometry"><mxPoint x="-10" as="offset"/></mxGeometry></mxCell><mxCell id="oby6OhFrnuwyH6eVMqic-48" value="Relation" style="endArrow=open;html=1;endSize=12;startArrow=diamondThin;startSize=14;startFill=0;edgeStyle=orthogonalEdgeStyle;rounded=0;entryX=0;entryY=0.5;entryDx=0;entryDy=0;exitX=0.999;exitY=0.168;exitDx=0;exitDy=0;exitPerimeter=0;" parent="1" source="oby6OhFrnuwyH6eVMqic-28" target="oby6OhFrnuwyH6eVMqic-16" edge="1"><mxGeometry relative="1" as="geometry"><mxPoint x="530" y="450" as="sourcePoint"/><mxPoint x="588" y="520" as="targetPoint"/></mxGeometry></mxCell><mxCell id="oby6OhFrnuwyH6eVMqic-49" value="1..*" style="edgeLabel;resizable=0;html=1;align=right;verticalAlign=top;" parent="oby6OhFrnuwyH6eVMqic-48" connectable="0" vertex="1"><mxGeometry x="1" relative="1" as="geometry"><mxPoint x="-10" as="offset"/></mxGeometry></mxCell><mxCell id="oby6OhFrnuwyH6eVMqic-50" value="Gall&lt;span style=&quot;background-color: initial;&quot;&gt;ery&lt;/span&gt;" style="swimlane;fontStyle=1;align=center;verticalAlign=top;childLayout=stackLayout;horizontal=1;startSize=26;horizontalStack=0;resizeParent=1;resizeParentMax=0;resizeLast=0;collapsible=1;marginBottom=0;whiteSpace=wrap;html=1;" parent="1" vertex="1"><mxGeometry x="270" y="700" width="200" height="130" as="geometry"/></mxCell><mxCell id="oby6OhFrnuwyH6eVMqic-51" value="+ medias: array" style="text;strokeColor=none;fillColor=none;align=left;verticalAlign=top;spacingLeft=4;spacingRight=4;overflow=hidden;rotatable=0;points=[[0,0.5],[1,0.5]];portConstraint=eastwest;whiteSpace=wrap;html=1;" parent="oby6OhFrnuwyH6eVMqic-50" vertex="1"><mxGeometry y="26" width="200" height="26" as="geometry"/></mxCell><mxCell id="oby6OhFrnuwyH6eVMqic-52" value="" style="line;strokeWidth=1;fillColor=none;align=left;verticalAlign=middle;spacingTop=-1;spacingLeft=3;spacingRight=3;rotatable=0;labelPosition=right;points=[];portConstraint=eastwest;strokeColor=inherit;" parent="oby6OhFrnuwyH6eVMqic-50" vertex="1"><mxGeometry y="52" width="200" height="8" as="geometry"/></mxCell><mxCell id="oby6OhFrnuwyH6eVMqic-53" value="+ getMediaList(): Media[0..*]&lt;div&gt;+ showMedia(media: Media): void&lt;/div&gt;&lt;div&gt;+ setWallpaper(&lt;span style=&quot;background-color: initial;&quot;&gt;media: Media&lt;/span&gt;&lt;span style=&quot;background-color: initial;&quot;&gt;): void&lt;/span&gt;&lt;/div&gt;" style="text;strokeColor=none;fillColor=none;align=left;verticalAlign=top;spacingLeft=4;spacingRight=4;overflow=hidden;rotatable=0;points=[[0,0.5],[1,0.5]];portConstraint=eastwest;whiteSpace=wrap;html=1;" parent="oby6OhFrnuwyH6eVMqic-50" vertex="1"><mxGeometry y="60" width="200" height="70" as="geometry"/></mxCell><mxCell id="oby6OhFrnuwyH6eVMqic-54" value="Relation" style="endArrow=open;html=1;endSize=12;startArrow=diamondThin;startSize=14;startFill=0;edgeStyle=orthogonalEdgeStyle;rounded=0;entryX=-0.004;entryY=0.959;entryDx=0;entryDy=0;exitX=1;exitY=0.5;exitDx=0;exitDy=0;entryPerimeter=0;" parent="1" source="oby6OhFrnuwyH6eVMqic-51" target="oby6OhFrnuwyH6eVMqic-14" edge="1"><mxGeometry relative="1" as="geometry"><mxPoint x="470" y="468" as="sourcePoint"/><mxPoint x="590" y="350" as="targetPoint"/><Array as="points"><mxPoint x="480" y="739"/><mxPoint x="480" y="304"/></Array></mxGeometry></mxCell><mxCell id="oby6OhFrnuwyH6eVMqic-55" value="1..*" style="edgeLabel;resizable=0;html=1;align=right;verticalAlign=top;" parent="oby6OhFrnuwyH6eVMqic-54" connectable="0" vertex="1"><mxGeometry x="1" relative="1" as="geometry"><mxPoint x="-10" as="offset"/></mxGeometry></mxCell><mxCell id="ov68dBWVrfhX7pjr2wxw-2" value="Use" style="endArrow=open;endSize=12;dashed=1;html=1;rounded=0;exitX=0.46;exitY=1.055;exitDx=0;exitDy=0;entryX=0;entryY=0.5;entryDx=0;entryDy=0;exitPerimeter=0;" parent="1" source="ov68dBWVrfhX7pjr2wxw-23" target="oby6OhFrnuwyH6eVMqic-51" edge="1"><mxGeometry width="160" relative="1" as="geometry"><mxPoint x="162.5" y="469.9999999999999" as="sourcePoint"/><mxPoint x="450" y="590" as="targetPoint"/></mxGeometry></mxCell><mxCell id="ov68dBWVrfhX7pjr2wxw-3" value="Browser" style="swimlane;fontStyle=1;align=center;verticalAlign=top;childLayout=stackLayout;horizontal=1;startSize=26;horizontalStack=0;resizeParent=1;resizeParentMax=0;resizeLast=0;collapsible=1;marginBottom=0;whiteSpace=wrap;html=1;" parent="1" vertex="1"><mxGeometry x="270" y="840" width="190" height="140" as="geometry"/></mxCell><mxCell id="ov68dBWVrfhX7pjr2wxw-4" value="&lt;div&gt;- currentTab: int&lt;/div&gt;&lt;div&gt;&lt;span style=&quot;background-color: initial;&quot;&gt;- tabs: Tab[0..*]&lt;/span&gt;&lt;/div&gt;" style="text;strokeColor=none;fillColor=none;align=left;verticalAlign=top;spacingLeft=4;spacingRight=4;overflow=hidden;rotatable=0;points=[[0,0.5],[1,0.5]];portConstraint=eastwest;whiteSpace=wrap;html=1;" parent="ov68dBWVrfhX7pjr2wxw-3" vertex="1"><mxGeometry y="26" width="190" height="44" as="geometry"/></mxCell><mxCell id="ov68dBWVrfhX7pjr2wxw-5" value="" style="line;strokeWidth=1;fillColor=none;align=left;verticalAlign=middle;spacingTop=-1;spacingLeft=3;spacingRight=3;rotatable=0;labelPosition=right;points=[];portConstraint=eastwest;strokeColor=inherit;" parent="ov68dBWVrfhX7pjr2wxw-3" vertex="1"><mxGeometry y="70" width="190" height="8" as="geometry"/></mxCell><mxCell id="ov68dBWVrfhX7pjr2wxw-6" value="&lt;span style=&quot;background-color: initial;&quot;&gt;+ refresh(tab: int): void&lt;/span&gt;&lt;br&gt;&lt;div&gt;+ newTab(): void&lt;/div&gt;&lt;div&gt;+ showPage(tabIndex: int): void&lt;/div&gt;" style="text;strokeColor=none;fillColor=none;align=left;verticalAlign=top;spacingLeft=4;spacingRight=4;overflow=hidden;rotatable=0;points=[[0,0.5],[1,0.5]];portConstraint=eastwest;whiteSpace=wrap;html=1;" parent="ov68dBWVrfhX7pjr2wxw-3" vertex="1"><mxGeometry y="78" width="190" height="62" as="geometry"/></mxCell><mxCell id="ov68dBWVrfhX7pjr2wxw-7" value="Tab" style="swimlane;fontStyle=1;align=center;verticalAlign=top;childLayout=stackLayout;horizontal=1;startSize=26;horizontalStack=0;resizeParent=1;resizeParentMax=0;resizeLast=0;collapsible=1;marginBottom=0;whiteSpace=wrap;html=1;" parent="1" vertex="1"><mxGeometry x="580" y="883" width="180" height="110" as="geometry"/></mxCell><mxCell id="ov68dBWVrfhX7pjr2wxw-8" value="&lt;span style=&quot;background-color: initial;&quot;&gt;- source: string&lt;/span&gt;" style="text;strokeColor=none;fillColor=none;align=left;verticalAlign=top;spacingLeft=4;spacingRight=4;overflow=hidden;rotatable=0;points=[[0,0.5],[1,0.5]];portConstraint=eastwest;whiteSpace=wrap;html=1;" parent="ov68dBWVrfhX7pjr2wxw-7" vertex="1"><mxGeometry y="26" width="180" height="24" as="geometry"/></mxCell><mxCell id="ov68dBWVrfhX7pjr2wxw-9" value="" style="line;strokeWidth=1;fillColor=none;align=left;verticalAlign=middle;spacingTop=-1;spacingLeft=3;spacingRight=3;rotatable=0;labelPosition=right;points=[];portConstraint=eastwest;strokeColor=inherit;" parent="ov68dBWVrfhX7pjr2wxw-7" vertex="1"><mxGeometry y="50" width="180" height="8" as="geometry"/></mxCell><mxCell id="ov68dBWVrfhX7pjr2wxw-10" value="+ loadPage(page: String): void&lt;br&gt;+ refresh(tab: int): void&lt;br&gt;&lt;br&gt;" style="text;strokeColor=none;fillColor=none;align=left;verticalAlign=top;spacingLeft=4;spacingRight=4;overflow=hidden;rotatable=0;points=[[0,0.5],[1,0.5]];portConstraint=eastwest;whiteSpace=wrap;html=1;" parent="ov68dBWVrfhX7pjr2wxw-7" vertex="1"><mxGeometry y="58" width="180" height="52" as="geometry"/></mxCell><mxCell id="ov68dBWVrfhX7pjr2wxw-16" value="Relation" style="endArrow=open;html=1;endSize=12;startArrow=diamondThin;startSize=14;startFill=0;edgeStyle=orthogonalEdgeStyle;rounded=0;exitX=1;exitY=0.5;exitDx=0;exitDy=0;entryX=0;entryY=0.5;entryDx=0;entryDy=0;" parent="1" source="ov68dBWVrfhX7pjr2wxw-4" target="ov68dBWVrfhX7pjr2wxw-8" edge="1"><mxGeometry relative="1" as="geometry"><mxPoint x="790" y="900" as="sourcePoint"/><mxPoint x="950" y="900" as="targetPoint"/></mxGeometry></mxCell><mxCell id="ov68dBWVrfhX7pjr2wxw-18" value="0..*" style="edgeLabel;resizable=0;html=1;align=right;verticalAlign=top;" parent="ov68dBWVrfhX7pjr2wxw-16" connectable="0" vertex="1"><mxGeometry x="1" relative="1" as="geometry"/></mxCell><mxCell id="ov68dBWVrfhX7pjr2wxw-20" value="App&lt;br&gt;" style="swimlane;fontStyle=1;align=center;verticalAlign=top;childLayout=stackLayout;horizontal=1;startSize=26;horizontalStack=0;resizeParent=1;resizeParentMax=0;resizeLast=0;collapsible=1;marginBottom=0;whiteSpace=wrap;html=1;" parent="1" vertex="1"><mxGeometry x="20" y="315" width="170" height="230" as="geometry"/></mxCell><mxCell id="ov68dBWVrfhX7pjr2wxw-21" value="- show: boolean&lt;br&gt;- runInBackground: boolean&lt;br&gt;- screen: boolean&lt;br&gt;- screenMode: boolean" style="text;strokeColor=none;fillColor=none;align=left;verticalAlign=top;spacingLeft=4;spacingRight=4;overflow=hidden;rotatable=0;points=[[0,0.5],[1,0.5]];portConstraint=eastwest;whiteSpace=wrap;html=1;" parent="ov68dBWVrfhX7pjr2wxw-20" vertex="1"><mxGeometry y="26" width="170" height="64" as="geometry"/></mxCell><mxCell id="ov68dBWVrfhX7pjr2wxw-22" value="" style="line;strokeWidth=1;fillColor=none;align=left;verticalAlign=middle;spacingTop=-1;spacingLeft=3;spacingRight=3;rotatable=0;labelPosition=right;points=[];portConstraint=eastwest;strokeColor=inherit;" parent="ov68dBWVrfhX7pjr2wxw-20" vertex="1"><mxGeometry y="90" width="170" height="8" as="geometry"/></mxCell><mxCell id="ov68dBWVrfhX7pjr2wxw-23" value="&lt;p style=&quot;margin: 0px 0px 0px 4px;&quot;&gt;+ getScreenMode(): boolean&lt;br&gt;&lt;/p&gt;&lt;p style=&quot;margin: 0px 0px 0px 4px;&quot;&gt;+ showKeyboard(): void&lt;/p&gt;&lt;p style=&quot;margin: 0px 0px 0px 4px;&quot;&gt;+ hideKeyboard(): void&lt;/p&gt;&lt;p style=&quot;margin: 0px 0px 0px 4px;&quot;&gt;+ toogleScreen(): void&lt;br&gt;&lt;/p&gt;&lt;p style=&quot;margin: 0px 0px 0px 4px;&quot;&gt;&lt;br&gt;&lt;/p&gt;&lt;p style=&quot;margin: 0px 0px 0px 4px;&quot;&gt;- disableScreen: void&lt;/p&gt;&lt;p style=&quot;margin: 0px 0px 0px 4px;&quot;&gt;- enableScreen: void&lt;/p&gt;" style="text;strokeColor=none;fillColor=none;align=left;verticalAlign=top;spacingLeft=4;spacingRight=4;overflow=hidden;rotatable=0;points=[[0,0.5],[1,0.5]];portConstraint=eastwest;whiteSpace=wrap;html=1;" parent="ov68dBWVrfhX7pjr2wxw-20" vertex="1"><mxGeometry y="98" width="170" height="132" as="geometry"/></mxCell></root></mxGraphModel></diagram></mxfile>